<svg xmlns="http://www.w3.org/2000/svg" xmlns:xlink="https://w3.org/1999/xlink">
	<symbol viewBox="0 0 16 15" id="star"> 
		<path d="M6.77932 1.46709C7.24248 0.398992 8.75719 0.39899 9.22036 1.46709L10.6214 4.69809L14.1273 5.03216C15.2862 5.14259 15.7543 6.58317 14.8816 7.35373L12.2417 9.68466L13.0073 13.1221C13.2604 14.2585 12.035 15.1488 11.0325 14.5569L7.99984 12.7665L4.96721 14.5569C3.96469 15.1488 2.73926 14.2585 2.99236 13.1221L3.75801 9.68466L1.11809 7.35373C0.245398 6.58317 0.71347 5.14259 1.87242 5.03216L5.37824 4.69809L6.77932 1.46709ZM9.40091 5.22735L7.99984 1.99635L6.59876 5.22735C6.406 5.67189 5.98678 5.97647 5.50444 6.02243L1.99861 6.35649L4.63852 8.68743C5.00174 9.00813 5.16186 9.50095 5.05652 9.97389L4.29088 13.4114L7.32351 11.621C7.74075 11.3746 8.25893 11.3746 8.67617 11.621L11.7088 13.4114L10.9432 9.97389C10.8378 9.50095 10.9979 9.00813 11.3612 8.68743L14.0011 6.35649L10.4952 6.02243C10.0129 5.97647 9.59368 5.67189 9.40091 5.22735Z"/>
	</symbol>

	<symbol viewBox="0 0 16 16" id="like">
<path fill-rule="evenodd" clip-rule="evenodd" d="M9.4547 2.16732C9.36168 2.16732 9.27547 2.21676 9.22843 2.29736L9.22433 2.30438L6.16683 7.26115V13.834H11.8907C12.0135 13.834 12.1198 13.7487 12.1464 13.629L12.1487 13.6186L13.8487 6.97883C13.8798 6.8179 13.7565 6.66732 13.5915 6.66732H11.0002C10.566 6.66732 10.1268 6.52228 9.80696 6.21014C9.47075 5.88199 9.31488 5.41203 9.41491 4.90572L9.89414 2.48001C9.92614 2.31806 9.80219 2.16732 9.63725 2.16732H9.4547ZM4.8335 13.834V7.73875H2.47118C2.32739 7.73875 2.2104 7.85476 2.20929 7.99872C2.20929 7.99872 2.20929 7.99872 2.20929 7.99872L2.16684 13.5701C2.16572 13.7154 2.28327 13.834 2.42868 13.834H4.8335ZM5.12809 6.40541L8.08155 1.61731C8.36843 1.13222 8.89032 0.833984 9.4547 0.833984H9.63725C10.6424 0.833984 11.397 1.75237 11.2022 2.73844L10.723 5.16415C10.7144 5.20732 10.72 5.22693 10.7213 5.23124C10.7228 5.23604 10.726 5.24402 10.7383 5.25596C10.7661 5.28317 10.8492 5.33398 11.0002 5.33398H13.5915C14.6121 5.33398 15.3701 6.27923 15.1487 7.27539L15.1464 7.28579L13.4453 13.93C13.2788 14.6537 12.6343 15.1673 11.8907 15.1673H2.42868C1.54298 15.1673 0.826756 14.4457 0.833544 13.56C0.833544 13.56 0.833544 13.56 0.833544 13.56L0.875993 7.98854C0.88271 7.11235 1.59485 6.40541 2.47118 6.40541H5.12809Z" />
	</symbol>
	<symbol  viewBox="0 0 16 16" id="lib">
		<path fill-rule="evenodd" clip-rule="evenodd" d="M7.70184 0.736398C7.88953 0.642555 8.11044 0.642555 8.29813 0.736398L14.9648 4.06973C15.1906 4.18266 15.3333 4.4135 15.3333 4.66602C15.3333 4.91853 15.1906 5.14937 14.9648 5.2623L8.29813 8.59563C8.11044 8.68948 7.88953 8.68948 7.70184 8.59563L1.03517 5.2623C0.809318 5.14937 0.66665 4.91853 0.66665 4.66602C0.66665 4.4135 0.809318 4.18266 1.03517 4.06973L7.70184 0.736398ZM2.82403 4.66602L7.99998 7.25399L13.1759 4.66602L7.99998 2.07804L2.82403 4.66602Z" />
		<path fill-rule="evenodd" clip-rule="evenodd" d="M0.737032 7.70121C0.901691 7.37189 1.30214 7.2384 1.63146 7.40306L7.99998 10.5873L14.3685 7.40306C14.6978 7.2384 15.0983 7.37189 15.2629 7.70121C15.4276 8.03052 15.2941 8.43097 14.9648 8.59563L8.29813 11.929C8.11044 12.0228 7.88953 12.0228 7.70184 11.929L1.03517 8.59563C0.705855 8.43097 0.572372 8.03052 0.737032 7.70121Z" />
		<path fill-rule="evenodd" clip-rule="evenodd" d="M0.737032 11.0345C0.901691 10.7052 1.30214 10.5717 1.63146 10.7364L7.99998 13.9207L14.3685 10.7364C14.6978 10.5717 15.0983 10.7052 15.2629 11.0345C15.4276 11.3639 15.2941 11.7643 14.9648 11.929L8.29813 15.2623C8.11044 15.3561 7.88953 15.3561 7.70184 15.2623L1.03517 11.929C0.705855 11.7643 0.572372 11.3639 0.737032 11.0345Z"/>
	</symbol>

	<symbol viewBox="0 0 16 14" id="community">
		<path fill-rule="evenodd" clip-rule="evenodd" d="M14.6153 6.04557C14.5204 6.70339 14.2954 7.32861 13.9619 7.90355C13.9869 8.0459 13.9997 8.18978 13.9997 8.33429C13.9997 8.83617 13.8543 9.3165 13.5849 9.7529C13.4504 9.97073 13.4158 10.226 13.4025 10.3946C13.3873 10.5879 13.3924 10.7994 13.4062 11.0025C13.4217 11.2304 13.4497 11.4697 13.4818 11.6954C13.2216 11.6196 12.9395 11.5434 12.6704 11.4826C12.4465 11.4321 12.2174 11.3891 12.0099 11.3676C11.8289 11.349 11.5674 11.3345 11.3335 11.4101C10.8221 11.5754 10.2594 11.6676 9.66636 11.6676C8.96109 11.6676 8.31335 11.5424 7.74559 11.325C7.60903 11.3312 7.47146 11.3343 7.33301 11.3343C6.52993 11.3343 5.75701 11.2287 5.03385 11.0335C6.08516 12.2494 7.81828 13.001 9.66636 13.001C10.3883 13.001 11.0812 12.8901 11.7198 12.6864C11.7209 12.6865 11.723 12.6864 11.726 12.6864C11.7424 12.686 11.7879 12.6851 11.8729 12.6939C12.0067 12.7077 12.1786 12.7385 12.377 12.7833C12.7719 12.8724 13.2157 13.0038 13.5615 13.1136C14.2949 13.3464 15.0056 12.7064 14.8745 11.9621C14.8181 11.6418 14.7595 11.2508 14.7365 10.9122C14.7249 10.7419 14.7236 10.6021 14.7317 10.4995C14.7351 10.457 14.7394 10.4304 14.7421 10.4162C15.1172 9.79487 15.333 9.08744 15.333 8.33429C15.333 7.48526 15.0693 6.70995 14.6153 6.04557Z" />
		<path fill-rule="evenodd" clip-rule="evenodd" d="M3.73109 2.79943C2.83245 3.48662 2.33306 4.38871 2.33306 5.33398C2.33306 5.80534 2.45577 6.25932 2.68599 6.68147C2.77367 6.84226 2.79854 7.00812 2.80744 7.1204C2.81714 7.24283 2.8123 7.36867 2.80166 7.48633C2.78034 7.72191 2.72949 7.98884 2.66849 8.25174C2.59715 8.55927 2.50572 8.88724 2.41296 9.19518C2.76512 9.06719 3.15003 8.93601 3.51493 8.82956C3.80985 8.74352 4.10767 8.66886 4.37274 8.62695C4.60108 8.59084 4.93243 8.55536 5.2177 8.65405C5.85792 8.87555 6.57411 9.00065 7.33306 9.00065C8.76451 9.00065 10.0358 8.55621 10.935 7.86854C11.8337 7.18135 12.3331 6.27926 12.3331 5.33398C12.3331 4.38871 11.8337 3.48662 10.935 2.79943C10.0358 2.11176 8.76451 1.66732 7.33306 1.66732C5.90162 1.66732 4.63034 2.11176 3.73109 2.79943ZM2.92116 1.74028C4.07283 0.859589 5.6349 0.333984 7.33306 0.333984C9.03123 0.333984 10.5933 0.859589 11.745 1.74028C12.8973 2.62145 13.6664 3.88602 13.6664 5.33398C13.6664 6.78194 12.8973 8.04652 11.745 8.92769C10.5933 9.80838 9.03123 10.334 7.33306 10.334C6.43769 10.334 5.58244 10.188 4.80591 9.92241C4.80513 9.92459 4.74215 9.91843 4.58098 9.94392C4.39521 9.97329 4.15809 10.0308 3.88836 10.1095C3.35138 10.2662 2.74835 10.4878 2.28902 10.6666C1.49327 10.9763 0.682633 10.212 0.95074 9.39795C1.09284 8.96647 1.26043 8.42121 1.36966 7.95041C1.42468 7.71324 1.46039 7.51385 1.47375 7.36618C1.47839 7.31492 1.47958 7.27756 1.47932 7.2523C1.17246 6.66592 0.99973 6.01748 0.99973 5.33398C0.99973 3.88602 1.76887 2.62145 2.92116 1.74028Z"/>
	</symbol>

	<symbol viewBox="0 0 20 20" id="fb">
		<path d="M14.6359 0.837799L12.3215 0.833984C9.72134 0.833984 8.04102 2.60489 8.04102 5.34584V7.42611H5.71401C5.51293 7.42611 5.3501 7.59357 5.3501 7.80013V10.8142C5.3501 11.0208 5.51312 11.188 5.71401 11.188H8.04102V18.7935C8.04102 19 8.20386 19.1673 8.40494 19.1673H11.441C11.6421 19.1673 11.8049 18.9999 11.8049 18.7935V11.188H14.5258C14.7268 11.188 14.8897 11.0208 14.8897 10.8142L14.8908 7.80013C14.8908 7.70095 14.8524 7.60597 14.7842 7.53578C14.7161 7.46559 14.6232 7.42611 14.5267 7.42611H11.8049V5.66264C11.8049 4.81505 12.0016 4.38476 13.0764 4.38476L14.6355 4.38419C14.8364 4.38419 14.9992 4.21673 14.9992 4.01037V1.21163C14.9992 1.00545 14.8366 0.83818 14.6359 0.837799Z"/>
	</symbol>

	<symbol viewBox="0 0 20 20" id="inst">
		<path d="M18.3169 6.56606C18.2778 5.6805 18.1346 5.07168 17.9295 4.54413C17.7178 3.98415 17.3923 3.4828 16.9657 3.06603C16.5489 2.64277 16.0443 2.31388 15.4908 2.10555C14.9602 1.90041 14.3545 1.7572 13.469 1.71816C12.5768 1.67581 12.2936 1.66602 10.0308 1.66602C7.76794 1.66602 7.48471 1.67581 6.59584 1.71485C5.71028 1.7539 5.10146 1.89723 4.57404 2.10225C4.01393 2.31388 3.51258 2.63946 3.09581 3.06603C2.67255 3.4828 2.34379 3.98746 2.13534 4.54095C1.9302 5.07168 1.78699 5.67719 1.74795 6.56275C1.70559 7.45493 1.6958 7.73816 1.6958 10.001C1.6958 12.2638 1.70559 12.547 1.74464 13.4359C1.78368 14.3215 1.92702 14.9303 2.13216 15.4578C2.34379 16.0178 2.67255 16.5191 3.09581 16.9359C3.51258 17.3592 4.01724 17.6881 4.57073 17.8964C5.10146 18.1015 5.70697 18.2447 6.59266 18.2838C7.4814 18.323 7.76476 18.3326 10.0276 18.3326C12.2904 18.3326 12.5736 18.323 13.4625 18.2838C14.348 18.2447 14.9569 18.1015 15.4843 17.8964C16.6044 17.4633 17.4899 16.5778 17.923 15.4578C18.128 14.9271 18.2713 14.3215 18.3104 13.4359C18.3494 12.547 18.3592 12.2638 18.3592 10.001C18.3592 7.73816 18.3559 7.45493 18.3169 6.56606ZM16.816 13.3708C16.7801 14.1847 16.6434 14.6243 16.5295 14.9173C16.2494 15.6434 15.6731 16.2196 14.9471 16.4997C14.654 16.6136 14.2113 16.7504 13.4005 16.7861C12.5215 16.8253 12.2578 16.8349 10.0341 16.8349C7.81029 16.8349 7.54334 16.8253 6.66744 16.7861C5.85348 16.7504 5.41394 16.6136 5.12092 16.4997C4.7596 16.3661 4.43071 16.1545 4.16375 15.8778C3.88701 15.6075 3.67538 15.2819 3.54184 14.9206C3.42788 14.6276 3.29116 14.1847 3.25542 13.3741C3.21625 12.495 3.20659 12.2312 3.20659 10.0075C3.20659 7.7837 3.21625 7.51674 3.25542 6.64097C3.29116 5.82701 3.42788 5.38747 3.54184 5.09444C3.67538 4.733 3.88701 4.40423 4.16706 4.13715C4.43719 3.8604 4.76278 3.64877 5.12423 3.51536C5.41725 3.40141 5.8601 3.26469 6.67075 3.22882C7.54983 3.18978 7.8136 3.17998 10.0372 3.17998C12.2643 3.17998 12.528 3.18978 13.4039 3.22882C14.2178 3.26469 14.6573 3.40141 14.9504 3.51536C15.3117 3.64877 15.6406 3.8604 15.9075 4.13715C16.1843 4.40741 16.3959 4.733 16.5295 5.09444C16.6434 5.38747 16.7801 5.83019 16.816 6.64097C16.855 7.52005 16.8648 7.7837 16.8648 10.0075C16.8648 12.2312 16.855 12.4917 16.816 13.3708Z"/>
		<path d="M10.0307 5.71954C7.66708 5.71954 5.74931 7.63719 5.74931 10.001C5.74931 12.3648 7.66708 14.2824 10.0307 14.2824C12.3945 14.2824 14.3122 12.3648 14.3122 10.001C14.3122 7.63719 12.3945 5.71954 10.0307 5.71954ZM10.0307 12.7782C8.49732 12.7782 7.25349 11.5345 7.25349 10.001C7.25349 8.46743 8.49732 7.22372 10.0307 7.22372C11.5643 7.22372 12.808 8.46743 12.808 10.001C12.808 11.5345 11.5643 12.7782 10.0307 12.7782Z"/>
		<path d="M15.4811 5.55027C15.4811 6.10223 15.0336 6.54979 14.4815 6.54979C13.9295 6.54979 13.482 6.10223 13.482 5.55027C13.482 4.99817 13.9295 4.55074 14.4815 4.55074C15.0336 4.55074 15.4811 4.99817 15.4811 5.55027Z" />
	</symbol>

	<symbol viewBox="0 0 20 20" id="in">
	<path d="M18.329 18.3327L18.3332 18.332V12.2195C18.3332 9.22921 17.6894 6.92574 14.1936 6.92574C12.513 6.92574 11.3853 7.84796 10.9248 8.72227H10.8762V7.2049H7.56163V18.332H11.013V12.8223C11.013 11.3716 11.288 9.9688 13.0846 9.9688C14.8547 9.9688 14.8811 11.6244 14.8811 12.9153V18.3327H18.329Z"/>
	<path d="M1.9415 7.2056H5.39706V18.3327H1.9415V7.2056Z"/>
	<path d="M3.66789 1.66602C2.56303 1.66602 1.6665 2.56254 1.6665 3.6674C1.6665 4.77227 2.56303 5.68754 3.66789 5.68754C4.77275 5.68754 5.66928 4.77227 5.66928 3.6674C5.66859 2.56254 4.77206 1.66602 3.66789 1.66602Z"/>
	</symbol>
</svg>